<svg height="512" viewBox="0 0 64 64" width="512" xmlns="http://www.w3.org/2000/svg"><g id="Analysis-Stats-Mobile_Phone-Computer-Software" data-name="Analysis-Stats-Mobile Phone-Computer-Software"><rect fill="#c6c5ca" height="40" rx="1" width="54" x="3" y="7"/><rect fill="#5aaae7" height="28" rx="1" width="46" x="7" y="11"/><path d="m46 11h2v28h-2z" fill="#3d9ae2"/><path d="m38 55h-16l1-8h14z" fill="#c6c5ca"/><rect fill="#acabb1" height="6" rx="1" width="28" x="16" y="55"/><path d="m37.25 49h-14.5l.25-2h14z" fill="#acabb1"/><path d="m53 53v4a4 4 0 0 1 -4 4h-14a4 4 0 0 1 -4-4v-4z" fill="#c6c5ca"/><path d="m46 4v35h-32v-35a1 1 0 0 1 1-1h30a1 1 0 0 1 1 1z" fill="#e6e7e8"/><path d="m55 31v16h-22v-16a4 4 0 0 1 4-4h14a4 4 0 0 1 4 4z" fill="#acabb1"/><path d="m31 29h22v24h-22z" fill="#5aaae7"/><path d="m43 35a6 6 0 0 0 -6 6 6.009 6.009 0 0 0 6 6 6 6 0 0 0 0-12z" fill="#3d9ae2"/><path d="m41 33v6l-4.24 4.24a5.944 5.944 0 0 1 -1.76-4.24 6 6 0 0 1 6-6z" fill="#ff9811"/><path d="m41 39h6a6 6 0 0 1 -6 6 5.944 5.944 0 0 1 -4.24-1.76z" fill="#ff5023"/><path d="m47 39h-6v-6a6 6 0 0 1 6 6z" fill="#3d9ae2"/><path d="m53 29h-22a4 4 0 0 1 4-4h14a4 4 0 0 1 4 4z" fill="#c6c5ca"/><path d="m38 9a6 6 0 0 0 -6 6 6.009 6.009 0 0 0 6 6 6 6 0 0 0 0-12z" fill="#d8d7da"/><path d="m42 13h-6v-6a6 6 0 0 1 6 6z" fill="#3d9ae2"/><path d="m36 7v6l-4.24 4.24a5.944 5.944 0 0 1 -1.76-4.24 6 6 0 0 1 6-6z" fill="#ff9811"/><path d="m36 13h6a6 6 0 0 1 -6 6 5.944 5.944 0 0 1 -4.24-1.76z" fill="#ff5023"/><path d="m46 7h2v4h-2z" fill="#acabb1"/><path d="m53 51a2.006 2.006 0 0 0 -2 2h2z" fill="#3d9ae2"/><path d="m51 48a2.015 2.015 0 0 0 -2-2 2.006 2.006 0 0 0 -2 2v5h4z" fill="#3d9ae2"/><path d="m51 53h-4v5l-1.73-3-.27-.46a2 2 0 0 0 -1.74-1.01 2.013 2.013 0 0 0 -1.72 3.01l2.57 4.46h4.89a4 4 0 0 0 4-4v-4z" fill="#acabb1"/><path d="m49 51a2.006 2.006 0 0 1 2-2 2.015 2.015 0 0 1 2 2v1a2.006 2.006 0 0 1 2-2 2.015 2.015 0 0 1 2 2v1a2.006 2.006 0 0 1 2-2 2.015 2.015 0 0 1 2 2v9h-17.15l-.65-1.12-3.66-6.34a2.005 2.005 0 0 1 1.72-3.01 2 2 0 0 1 1.74 1.01l.27.46 1.73 3v-10a2.006 2.006 0 0 1 2-2 2.015 2.015 0 0 1 2 2z" fill="#ffc477"/><path d="m17 18h10v2h-10z"/><path d="m17 14h10v2h-10z"/><path d="m17 10h2v2h-2z"/><path d="m21 10h6v2h-6z"/><path d="m36 20a7 7 0 1 0 -7-7 7.008 7.008 0 0 0 7 7zm0-2a4.969 4.969 0 0 1 -2.753-.833l3.167-3.167h4.486a5.009 5.009 0 0 1 -4.9 4zm4.9-6h-3.9v-3.9a5.016 5.016 0 0 1 3.9 3.9zm-5.9-3.9v4.485l-3.167 3.167a4.991 4.991 0 0 1 3.167-7.652z"/><path d="m17 34h10v2h-10z"/><path d="m17 30h10v2h-10z"/><path d="m17 26h2v2h-2z"/><path d="m21 26h6v2h-6z"/><path d="m59 50a2.934 2.934 0 0 0 -1.47.39 3 3 0 0 0 -2.53-1.39 3.06 3.06 0 0 0 -1 .19v-1.19h2a2.006 2.006 0 0 0 2-2v-38a2.006 2.006 0 0 0 -2-2h-9v-2a2.006 2.006 0 0 0 -2-2h-30a2.006 2.006 0 0 0 -2 2v2h-9a2.006 2.006 0 0 0 -2 2v38a2.006 2.006 0 0 0 2 2h17.87l-.75 6h-4.12a2.006 2.006 0 0 0 -2 2v4a2.006 2.006 0 0 0 2 2h25.69l.29.5 1.73-1-4.31-7.46a1.01 1.01 0 0 1 .37-1.37.99.99 0 0 1 1.36.37l2 3.46a1.022 1.022 0 0 0 1.13.47 1 1 0 0 0 .74-.97v-10a1 1 0 0 1 2 0v8a1 1 0 0 0 2 0v-3a1 1 0 0 1 2 0v3a1 1 0 0 0 2 0v-2a1 1 0 0 1 2 0v2a1 1 0 0 0 2 0v-1a1 1 0 0 1 2 0v9h2v-9a3.009 3.009 0 0 0 -3-3zm-10-24a3.01 3.01 0 0 1 2.82 2h-19.64a3.01 3.01 0 0 1 2.82-2zm-45 20v-38h9v2h-5a2.006 2.006 0 0 0 -2 2v26a2.006 2.006 0 0 0 2 2h22v6zm9-34v26h-5v-26zm17 36v6h-6.87l.75-6zm-13 12v-4h13v1a4.924 4.924 0 0 0 1.03 3zm13-31v9h-15v-34h30v20h-10a5 5 0 0 0 -5 5zm11.54 31h-6.54a3.009 3.009 0 0 1 -3-3v-3h6.31a3.068 3.068 0 0 0 .36 1.04zm-.54-16a4.979 4.979 0 0 1 -2.75-.83l3.16-3.17h4.49a5.017 5.017 0 0 1 -4.9 4zm-4.17-2.25a4.993 4.993 0 0 1 3.17-7.65v4.49zm5.17-3.75v-3.9a5.01 5.01 0 0 1 3.9 3.9zm10 10.19a3.06 3.06 0 0 0 -1-.19 3 3 0 0 0 -1 .17v-2.17a3.009 3.009 0 0 0 -3-3 2.85 2.85 0 0 0 -.29.03 6.936 6.936 0 0 0 1.29-4.03 7.016 7.016 0 1 0 -3.9 6.27 2.923 2.923 0 0 0 -.1.73v6h-.16a3 3 0 0 0 -4.07-1.06 2.911 2.911 0 0 0 -1.06 1.06h-6.71v-22h20zm0-23.16a4.924 4.924 0 0 0 -3-1.03h-2v-12h5zm0-15.03h-5v-2h9v38h-2v-34a2.006 2.006 0 0 0 -2-2z"/></g></svg>